# xmcd
#
# Track frame offsets: 
#        150
#        13459
#        26758
#        35817
#        51380
#        64911
#        84176
#        93008
#        115597
#        121898
#
# Disc length: 1774 seconds
#
# Revision: 2
# Processed by: cddbd v1.5.2PL0 Copyright (c) Steve Scherf et al.
# Submitted via: ExactAudioCopy v0.99pb4
#
DISCID=7f06ec0a
DTITLE=Various Artist - O Holy Night
DYEAR=2001
DGENRE=Christmas
TTITLE0=Nat King Cole - O Holy Night
TTITLE1=Mahalia Jackson - Hark! The Herald Angels Sing
TTITLE2=Nat King Cole - Caroling, Caroling
TTITLE3=Mahalia Jackson  - Away In A Manger
TTITLE4=Nat King Cole - O Tannenbaum
TTITLE5=Mahalia Jackson - What Child Is This
TTITLE6=Nat King Cole - The First Noel
TTITLE7=Mahalia Jackson - Silent Night
TTITLE8=Nat King Cole - Joy To The World
TTITLE9=Mahalia Jackson - O Little Town Of Bethlehem
EXTD=
EXTT0=
EXTT1=
EXTT2=
EXTT3=
EXTT4=
EXTT5=
EXTT6=
EXTT7=
EXTT8=
EXTT9=
PLAYORDER=
